<svg xmlns="http://www.w3.org/2000/svg" width="320" height="320" viewBox="0 0 320 320" fill="none">
  <g stroke="rgba(214,163,74,0.18)" stroke-width="2.2" stroke-linecap="round" stroke-linejoin="round">
    <path d="M42 28v40m-14-20h28"/>
    <path d="M102 26c10 0 18 8 18 18s-8 18-18 18-18-8-18-18 8-18 18-18Z"/>
    <path d="M170 26v46m0-46c14 0 22 8 22 18s-8 18-22 18"/>
    <path d="M230 24l18 48 18-48"/>
    <path d="M286 26v44m-14-30h28m-20 18h12"/>

    <path d="M44 106c8 0 16 8 16 16 0 7-5 12-10 16l10 18H44l-8-14-8 14H12l10-18c-5-4-10-9-10-16 0-8 8-16 16-16h16Z"/>
    <path d="M98 106h28v50H98z"/>
    <path d="M170 106c0 14-10 24-24 24 14 0 24 10 24 24"/>
    <path d="M222 104c18 0 30 12 30 30s-12 30-30 30-30-12-30-30 12-30 30-30Z"/>
    <path d="M288 104l18 60m-36 0 18-60"/>

    <path d="M34 196h20m-10-10v20"/>
    <path d="M96 182h32l-16 28-16-28Zm16 28v20"/>
    <path d="M168 182v48m-18-24h36"/>
    <path d="M226 182c16 0 28 10 28 24s-12 24-28 24-28-10-28-24 12-24 28-24Z"/>
    <path d="M292 182v50m-14-34h28"/>

    <path d="M34 264h24v24H34z"/>
    <path d="M96 262c14 0 24 10 24 24s-10 24-24 24-24-10-24-24 10-24 24-24Z"/>
    <path d="M170 262v48m-18-30h36m-26 14h16"/>
    <path d="M222 262l18 48 18-48"/>
    <path d="M286 262c0 10 8 18 18 18s18-8 18-18"/>
  </g>
</svg>
