<svg xmlns="http://www.w3.org/2000/svg" width="1200" height="630" viewBox="0 0 1200 630">
  <defs>
    <linearGradient id="bg" x1="0" x2="1" y1="0" y2="1">
      <stop offset="0%" stop-color="#06101b"/>
      <stop offset="60%" stop-color="#0b1422"/>
      <stop offset="100%" stop-color="#05070d"/>
    </linearGradient>
    <linearGradient id="gold" x1="0" x2="1">
      <stop offset="0%" stop-color="#f4d58f"/>
      <stop offset="50%" stop-color="#d29a44"/>
      <stop offset="100%" stop-color="#8e6121"/>
    </linearGradient>
  </defs>
  <rect width="1200" height="630" fill="url(#bg)"/>
  <circle cx="830" cy="150" r="180" fill="#d29a44" fill-opacity="0.14"/>
  <path d="M70 540 260 190 420 540H70Z" fill="#15110d" stroke="url(#gold)" stroke-opacity="0.25"/>
  <path d="M280 540 500 130 690 540H280Z" fill="#17110c" stroke="url(#gold)" stroke-opacity="0.3"/>
  <g transform="translate(820 110)" fill="none" stroke="url(#gold)" stroke-width="6" stroke-linecap="round" stroke-linejoin="round" opacity="0.9">
    <path d="M-140 70c50-45 96-70 140-78 44 8 90 33 140 78-52-18-93-25-140-25s-88 7-140 25Z"/>
    <circle cx="0" cy="72" r="18"/>
    <path d="M-10 92h20l-7 34h-6l-7-34Zm-26 46h52"/>
  </g>
  <text x="1000" y="260" fill="#f3d58f" font-size="66" font-family="Arial, sans-serif" font-weight="700" text-anchor="end">د. أحمد المعيقلي</text>
  <text x="1000" y="320" fill="#fff3d3" font-size="34" font-family="Arial, sans-serif" text-anchor="end">عالم مصريات | باحث أكاديمي دولي</text>
  <text x="1000" y="374" fill="#d8b067" font-size="28" font-family="Arial, sans-serif" text-anchor="end">موقع رسمي بطابع فرعوني معاصر</text>
  <rect x="760" y="418" width="240" height="2" fill="url(#gold)"/>
  <text x="1000" y="470" fill="#fff6df" font-size="28" font-family="Arial, sans-serif" text-anchor="end">نحرس تاريخنا بالمعرفة.. ونكشف زيف الماضي بالأدلة الموثقة.</text>
</svg>
